<mxfile host="app.diagrams.net" agent="Mozilla/5.0 (Windows NT 10.0; Win64; x64) AppleWebKit/537.36 (KHTML, like Gecko) Chrome/136.0.0.0 Safari/537.36" version="27.0.6">
  <diagram name="管理员" id="JXlnEeZQQSt_0MCJWPyT">
    <mxGraphModel dx="2929" dy="4877" grid="1" gridSize="10" guides="1" tooltips="1" connect="1" arrows="1" fold="1" page="1" pageScale="1" pageWidth="2339" pageHeight="3300" math="0" shadow="0">
      <root>
        <mxCell id="0" />
        <mxCell id="1" parent="0" />
        <mxCell id="Dk07cTaiubOUnDSIkbtg-1" value="系统管理员" style="shape=umlActor;verticalLabelPosition=bottom;verticalAlign=top;html=1;outlineConnect=0;fillColor=light-dark(#F3F3F3,#E3E3E3);" parent="1" vertex="1">
          <mxGeometry x="1155" y="610" width="30" height="60" as="geometry" />
        </mxCell>
        <mxCell id="Dk07cTaiubOUnDSIkbtg-3" value="" style="endArrow=classic;html=1;rounded=0;exitX=0.5;exitY=0.5;exitDx=0;exitDy=0;exitPerimeter=0;entryX=0;entryY=1;entryDx=0;entryDy=0;fillColor=light-dark(#F3F3F3,#E3E3E3);" parent="1" source="Dk07cTaiubOUnDSIkbtg-1" target="Dk07cTaiubOUnDSIkbtg-5" edge="1">
          <mxGeometry width="50" height="50" relative="1" as="geometry">
            <mxPoint x="1210" y="640" as="sourcePoint" />
            <mxPoint x="1420" y="520" as="targetPoint" />
          </mxGeometry>
        </mxCell>
        <mxCell id="Dk07cTaiubOUnDSIkbtg-5" value="原材料供应商管理" style="ellipse;whiteSpace=wrap;html=1;fillColor=light-dark(#F3F3F3,#E3E3E3);" parent="1" vertex="1">
          <mxGeometry x="1185" y="90" width="140" height="60" as="geometry" />
        </mxCell>
        <mxCell id="Dk07cTaiubOUnDSIkbtg-17" value="" style="endArrow=classic;html=1;rounded=0;entryX=0;entryY=0.5;entryDx=0;entryDy=0;exitX=0.5;exitY=0.5;exitDx=0;exitDy=0;exitPerimeter=0;fillColor=light-dark(#F3F3F3,#E3E3E3);" parent="1" source="Dk07cTaiubOUnDSIkbtg-1" target="Dk07cTaiubOUnDSIkbtg-18" edge="1">
          <mxGeometry width="50" height="50" relative="1" as="geometry">
            <mxPoint x="330" y="200" as="sourcePoint" />
            <mxPoint x="510" y="90" as="targetPoint" />
          </mxGeometry>
        </mxCell>
        <mxCell id="Dk07cTaiubOUnDSIkbtg-18" value="匹配管理" style="ellipse;whiteSpace=wrap;html=1;fillColor=light-dark(#F3F3F3,#E3E3E3);" parent="1" vertex="1">
          <mxGeometry x="1270" y="560" width="140" height="60" as="geometry" />
        </mxCell>
        <mxCell id="Dk07cTaiubOUnDSIkbtg-19" value="" style="endArrow=classic;html=1;rounded=0;entryX=0;entryY=0.5;entryDx=0;entryDy=0;exitX=0.5;exitY=0.5;exitDx=0;exitDy=0;exitPerimeter=0;fillColor=light-dark(#F3F3F3,#E3E3E3);" parent="1" source="Dk07cTaiubOUnDSIkbtg-1" target="Dk07cTaiubOUnDSIkbtg-20" edge="1">
          <mxGeometry width="50" height="50" relative="1" as="geometry">
            <mxPoint x="340" y="210" as="sourcePoint" />
            <mxPoint x="520" y="100" as="targetPoint" />
          </mxGeometry>
        </mxCell>
        <mxCell id="Dk07cTaiubOUnDSIkbtg-20" value="分销商管理" style="ellipse;whiteSpace=wrap;html=1;fillColor=light-dark(#F3F3F3,#E3E3E3);" parent="1" vertex="1">
          <mxGeometry x="1270" y="450" width="140" height="60" as="geometry" />
        </mxCell>
        <mxCell id="Dk07cTaiubOUnDSIkbtg-21" value="" style="endArrow=classic;html=1;rounded=0;entryX=0;entryY=0.5;entryDx=0;entryDy=0;exitX=0.5;exitY=0.5;exitDx=0;exitDy=0;exitPerimeter=0;fillColor=light-dark(#F3F3F3,#E3E3E3);" parent="1" source="Dk07cTaiubOUnDSIkbtg-1" target="Dk07cTaiubOUnDSIkbtg-22" edge="1">
          <mxGeometry width="50" height="50" relative="1" as="geometry">
            <mxPoint x="350" y="220" as="sourcePoint" />
            <mxPoint x="530" y="110" as="targetPoint" />
          </mxGeometry>
        </mxCell>
        <mxCell id="Dk07cTaiubOUnDSIkbtg-22" value="智能设备制造商管理" style="ellipse;whiteSpace=wrap;html=1;fillColor=light-dark(#F3F3F3,#E3E3E3);" parent="1" vertex="1">
          <mxGeometry x="1240" y="320" width="140" height="60" as="geometry" />
        </mxCell>
        <mxCell id="Dk07cTaiubOUnDSIkbtg-29" value="" style="endArrow=classic;html=1;rounded=0;entryX=1;entryY=0.5;entryDx=0;entryDy=0;exitX=0.5;exitY=0.5;exitDx=0;exitDy=0;exitPerimeter=0;fillColor=light-dark(#F3F3F3,#E3E3E3);" parent="1" source="Dk07cTaiubOUnDSIkbtg-1" target="Dk07cTaiubOUnDSIkbtg-30" edge="1">
          <mxGeometry width="50" height="50" relative="1" as="geometry">
            <mxPoint x="710" y="310" as="sourcePoint" />
            <mxPoint x="150" y="-200" as="targetPoint" />
          </mxGeometry>
        </mxCell>
        <mxCell id="Dk07cTaiubOUnDSIkbtg-30" value="订单管理" style="ellipse;whiteSpace=wrap;html=1;fillColor=light-dark(#F3F3F3,#E3E3E3);" parent="1" vertex="1">
          <mxGeometry x="960" y="780" width="140" height="60" as="geometry" />
        </mxCell>
        <mxCell id="Dk07cTaiubOUnDSIkbtg-31" value="" style="endArrow=classic;html=1;rounded=0;entryX=1;entryY=0.5;entryDx=0;entryDy=0;exitX=0.5;exitY=0.5;exitDx=0;exitDy=0;exitPerimeter=0;fillColor=light-dark(#F3F3F3,#E3E3E3);" parent="1" source="Dk07cTaiubOUnDSIkbtg-1" target="Dk07cTaiubOUnDSIkbtg-32" edge="1">
          <mxGeometry width="50" height="50" relative="1" as="geometry">
            <mxPoint x="720" y="320" as="sourcePoint" />
            <mxPoint x="160" y="-190" as="targetPoint" />
          </mxGeometry>
        </mxCell>
        <mxCell id="Dk07cTaiubOUnDSIkbtg-32" value="众创设计提案管理" style="ellipse;whiteSpace=wrap;html=1;fillColor=light-dark(#F3F3F3,#E3E3E3);" parent="1" vertex="1">
          <mxGeometry x="960" y="630" width="140" height="60" as="geometry" />
        </mxCell>
        <mxCell id="Dk07cTaiubOUnDSIkbtg-33" value="" style="endArrow=classic;html=1;rounded=0;entryX=1;entryY=0.5;entryDx=0;entryDy=0;exitX=0.5;exitY=0.5;exitDx=0;exitDy=0;exitPerimeter=0;fillColor=light-dark(#F3F3F3,#E3E3E3);" parent="1" source="Dk07cTaiubOUnDSIkbtg-1" target="Dk07cTaiubOUnDSIkbtg-34" edge="1">
          <mxGeometry width="50" height="50" relative="1" as="geometry">
            <mxPoint x="730" y="330" as="sourcePoint" />
            <mxPoint x="170" y="-180" as="targetPoint" />
          </mxGeometry>
        </mxCell>
        <mxCell id="Dk07cTaiubOUnDSIkbtg-34" value="维修服务商管理" style="ellipse;whiteSpace=wrap;html=1;fillColor=light-dark(#F3F3F3,#E3E3E3);" parent="1" vertex="1">
          <mxGeometry x="940" y="500" width="140" height="60" as="geometry" />
        </mxCell>
        <mxCell id="Dk07cTaiubOUnDSIkbtg-35" value="" style="endArrow=classic;html=1;rounded=0;entryX=0.5;entryY=1;entryDx=0;entryDy=0;exitX=0.5;exitY=0.5;exitDx=0;exitDy=0;exitPerimeter=0;fillColor=light-dark(#F3F3F3,#E3E3E3);" parent="1" source="Dk07cTaiubOUnDSIkbtg-1" target="Dk07cTaiubOUnDSIkbtg-36" edge="1">
          <mxGeometry width="50" height="50" relative="1" as="geometry">
            <mxPoint x="740" y="340" as="sourcePoint" />
            <mxPoint x="180" y="-170" as="targetPoint" />
          </mxGeometry>
        </mxCell>
        <mxCell id="Dk07cTaiubOUnDSIkbtg-36" value="物流服务商管理" style="ellipse;whiteSpace=wrap;html=1;fillColor=light-dark(#F3F3F3,#E3E3E3);" parent="1" vertex="1">
          <mxGeometry x="950" y="240" width="140" height="60" as="geometry" />
        </mxCell>
        <mxCell id="Dk07cTaiubOUnDSIkbtg-37" value="" style="endArrow=classic;html=1;rounded=0;entryX=1;entryY=0.5;entryDx=0;entryDy=0;exitX=0.5;exitY=0.5;exitDx=0;exitDy=0;exitPerimeter=0;fillColor=light-dark(#F3F3F3,#E3E3E3);" parent="1" source="Dk07cTaiubOUnDSIkbtg-1" target="Dk07cTaiubOUnDSIkbtg-38" edge="1">
          <mxGeometry width="50" height="50" relative="1" as="geometry">
            <mxPoint x="1140" y="670" as="sourcePoint" />
            <mxPoint x="580" y="160" as="targetPoint" />
          </mxGeometry>
        </mxCell>
        <mxCell id="Dk07cTaiubOUnDSIkbtg-38" value="共享仓储管理" style="ellipse;whiteSpace=wrap;html=1;fillColor=light-dark(#F3F3F3,#E3E3E3);" parent="1" vertex="1">
          <mxGeometry x="970" y="70" width="140" height="60" as="geometry" />
        </mxCell>
        <mxCell id="Dk07cTaiubOUnDSIkbtg-64" value="&amp;lt;&amp;lt;include&amp;gt;&amp;gt;" style="endArrow=open;endSize=12;dashed=1;html=1;rounded=0;entryX=1;entryY=0.5;entryDx=0;entryDy=0;exitX=0.03;exitY=0.765;exitDx=0;exitDy=0;exitPerimeter=0;fillColor=light-dark(#F3F3F3,#E3E3E3);" parent="1" source="Dk07cTaiubOUnDSIkbtg-32" target="Dk07cTaiubOUnDSIkbtg-65" edge="1">
          <mxGeometry width="160" relative="1" as="geometry">
            <mxPoint x="590" y="120" as="sourcePoint" />
            <mxPoint x="250" y="-40" as="targetPoint" />
          </mxGeometry>
        </mxCell>
        <mxCell id="Dk07cTaiubOUnDSIkbtg-65" value="提案浏览记录管理" style="ellipse;whiteSpace=wrap;html=1;fillColor=light-dark(#F3F3F3,#E3E3E3);" parent="1" vertex="1">
          <mxGeometry x="770" y="730" width="140" height="60" as="geometry" />
        </mxCell>
        <mxCell id="Dk07cTaiubOUnDSIkbtg-66" value="&amp;lt;&amp;lt;include&amp;gt;&amp;gt;" style="endArrow=open;endSize=12;dashed=1;html=1;rounded=0;entryX=0.5;entryY=0;entryDx=0;entryDy=0;exitX=0.5;exitY=1;exitDx=0;exitDy=0;fillColor=light-dark(#F3F3F3,#E3E3E3);" parent="1" source="Dk07cTaiubOUnDSIkbtg-18" target="Dk07cTaiubOUnDSIkbtg-67" edge="1">
          <mxGeometry width="160" relative="1" as="geometry">
            <mxPoint x="1750" y="110" as="sourcePoint" />
            <mxPoint x="1890" y="90" as="targetPoint" />
          </mxGeometry>
        </mxCell>
        <mxCell id="Dk07cTaiubOUnDSIkbtg-67" value="匹配推荐列表管理" style="ellipse;whiteSpace=wrap;html=1;fillColor=light-dark(#F3F3F3,#E3E3E3);" parent="1" vertex="1">
          <mxGeometry x="1230" y="780" width="140" height="60" as="geometry" />
        </mxCell>
        <mxCell id="Dk07cTaiubOUnDSIkbtg-68" value="&amp;lt;&amp;lt;include&amp;gt;&amp;gt;" style="endArrow=open;endSize=12;dashed=1;html=1;rounded=0;entryX=0.5;entryY=0;entryDx=0;entryDy=0;fillColor=light-dark(#F3F3F3,#E3E3E3);exitX=0.5;exitY=1;exitDx=0;exitDy=0;" parent="1" source="Dk07cTaiubOUnDSIkbtg-18" target="Dk07cTaiubOUnDSIkbtg-69" edge="1">
          <mxGeometry width="160" relative="1" as="geometry">
            <mxPoint x="1320" y="910" as="sourcePoint" />
            <mxPoint x="1900" y="100" as="targetPoint" />
          </mxGeometry>
        </mxCell>
        <mxCell id="Dk07cTaiubOUnDSIkbtg-69" value="企业物流匹配管理" style="ellipse;whiteSpace=wrap;html=1;fillColor=light-dark(#F3F3F3,#E3E3E3);" parent="1" vertex="1">
          <mxGeometry x="1410" y="850" width="140" height="60" as="geometry" />
        </mxCell>
        <mxCell id="Dk07cTaiubOUnDSIkbtg-70" value="&amp;lt;&amp;lt;include&amp;gt;&amp;gt;" style="endArrow=open;endSize=12;dashed=1;html=1;rounded=0;entryX=0;entryY=0;entryDx=0;entryDy=0;exitX=0.5;exitY=1;exitDx=0;exitDy=0;fillColor=light-dark(#F3F3F3,#E3E3E3);" parent="1" source="Dk07cTaiubOUnDSIkbtg-18" target="Dk07cTaiubOUnDSIkbtg-71" edge="1">
          <mxGeometry width="160" relative="1" as="geometry">
            <mxPoint x="1770" y="130" as="sourcePoint" />
            <mxPoint x="1910" y="110" as="targetPoint" />
          </mxGeometry>
        </mxCell>
        <mxCell id="Dk07cTaiubOUnDSIkbtg-71" value="中下游匹配管理" style="ellipse;whiteSpace=wrap;html=1;fillColor=light-dark(#F3F3F3,#E3E3E3);" parent="1" vertex="1">
          <mxGeometry x="1490" y="720" width="140" height="60" as="geometry" />
        </mxCell>
        <mxCell id="Dk07cTaiubOUnDSIkbtg-72" value="&amp;lt;&amp;lt;include&amp;gt;&amp;gt;" style="endArrow=open;endSize=12;dashed=1;html=1;rounded=0;entryX=0;entryY=0.5;entryDx=0;entryDy=0;exitX=0.5;exitY=1;exitDx=0;exitDy=0;fillColor=light-dark(#F3F3F3,#E3E3E3);" parent="1" source="Dk07cTaiubOUnDSIkbtg-18" target="Dk07cTaiubOUnDSIkbtg-73" edge="1">
          <mxGeometry width="160" relative="1" as="geometry">
            <mxPoint x="1780" y="140" as="sourcePoint" />
            <mxPoint x="1920" y="120" as="targetPoint" />
          </mxGeometry>
        </mxCell>
        <mxCell id="Dk07cTaiubOUnDSIkbtg-73" value="中上游匹配管理" style="ellipse;whiteSpace=wrap;html=1;fillColor=light-dark(#F3F3F3,#E3E3E3);" parent="1" vertex="1">
          <mxGeometry x="1480" y="620" width="140" height="60" as="geometry" />
        </mxCell>
        <mxCell id="Dk07cTaiubOUnDSIkbtg-74" value="&amp;lt;&amp;lt;include&amp;gt;&amp;gt;" style="endArrow=open;endSize=12;dashed=1;html=1;rounded=0;entryX=0;entryY=0.5;entryDx=0;entryDy=0;exitX=1;exitY=0.5;exitDx=0;exitDy=0;fillColor=light-dark(#F3F3F3,#E3E3E3);" parent="1" source="Dk07cTaiubOUnDSIkbtg-22" target="Dk07cTaiubOUnDSIkbtg-75" edge="1">
          <mxGeometry width="160" relative="1" as="geometry">
            <mxPoint x="1790" y="150" as="sourcePoint" />
            <mxPoint x="1930" y="130" as="targetPoint" />
          </mxGeometry>
        </mxCell>
        <mxCell id="Dk07cTaiubOUnDSIkbtg-75" value="智能设备实例管理" style="ellipse;whiteSpace=wrap;html=1;fillColor=light-dark(#F3F3F3,#E3E3E3);" parent="1" vertex="1">
          <mxGeometry x="1490" y="370" width="140" height="60" as="geometry" />
        </mxCell>
        <mxCell id="Dk07cTaiubOUnDSIkbtg-76" value="&amp;lt;&amp;lt;include&amp;gt;&amp;gt;" style="endArrow=open;endSize=12;dashed=1;html=1;rounded=0;entryX=0;entryY=0.5;entryDx=0;entryDy=0;exitX=1;exitY=0.5;exitDx=0;exitDy=0;fillColor=light-dark(#F3F3F3,#E3E3E3);" parent="1" source="Dk07cTaiubOUnDSIkbtg-22" target="Dk07cTaiubOUnDSIkbtg-77" edge="1">
          <mxGeometry width="160" relative="1" as="geometry">
            <mxPoint x="1800" y="160" as="sourcePoint" />
            <mxPoint x="1940" y="140" as="targetPoint" />
          </mxGeometry>
        </mxCell>
        <mxCell id="Dk07cTaiubOUnDSIkbtg-77" value="智能设备分类管理" style="ellipse;whiteSpace=wrap;html=1;fillColor=light-dark(#F3F3F3,#E3E3E3);" parent="1" vertex="1">
          <mxGeometry x="1530" y="250" width="140" height="60" as="geometry" />
        </mxCell>
        <mxCell id="Dk07cTaiubOUnDSIkbtg-78" value="&amp;lt;&amp;lt;include&amp;gt;&amp;gt;" style="endArrow=open;endSize=12;dashed=1;html=1;rounded=0;entryX=0;entryY=0.5;entryDx=0;entryDy=0;exitX=1;exitY=0.5;exitDx=0;exitDy=0;fillColor=light-dark(#F3F3F3,#E3E3E3);" parent="1" source="Dk07cTaiubOUnDSIkbtg-22" target="Dk07cTaiubOUnDSIkbtg-79" edge="1">
          <mxGeometry width="160" relative="1" as="geometry">
            <mxPoint x="1810" y="170" as="sourcePoint" />
            <mxPoint x="1950" y="150" as="targetPoint" />
          </mxGeometry>
        </mxCell>
        <mxCell id="Dk07cTaiubOUnDSIkbtg-79" value="智能设备单品管理" style="ellipse;whiteSpace=wrap;html=1;fillColor=light-dark(#F3F3F3,#E3E3E3);" parent="1" vertex="1">
          <mxGeometry x="1530" y="120" width="140" height="60" as="geometry" />
        </mxCell>
        <mxCell id="Dk07cTaiubOUnDSIkbtg-80" value="&amp;lt;&amp;lt;include&amp;gt;&amp;gt;" style="endArrow=open;endSize=12;dashed=1;html=1;rounded=0;entryX=0.5;entryY=1;entryDx=0;entryDy=0;exitX=1;exitY=0.5;exitDx=0;exitDy=0;fillColor=light-dark(#F3F3F3,#E3E3E3);" parent="1" source="Dk07cTaiubOUnDSIkbtg-22" target="Dk07cTaiubOUnDSIkbtg-81" edge="1">
          <mxGeometry width="160" relative="1" as="geometry">
            <mxPoint x="1820" y="180" as="sourcePoint" />
            <mxPoint x="1960" y="160" as="targetPoint" />
          </mxGeometry>
        </mxCell>
        <mxCell id="Dk07cTaiubOUnDSIkbtg-81" value="制造商管理" style="ellipse;whiteSpace=wrap;html=1;fillColor=light-dark(#F3F3F3,#E3E3E3);" parent="1" vertex="1">
          <mxGeometry x="1420" y="20" width="140" height="60" as="geometry" />
        </mxCell>
        <mxCell id="Dk07cTaiubOUnDSIkbtg-82" value="&amp;lt;&amp;lt;include&amp;gt;&amp;gt;" style="endArrow=open;endSize=12;dashed=1;html=1;rounded=0;entryX=0.5;entryY=1;entryDx=0;entryDy=0;exitX=0.5;exitY=0;exitDx=0;exitDy=0;fillColor=light-dark(#F3F3F3,#E3E3E3);" parent="1" source="Dk07cTaiubOUnDSIkbtg-5" target="Dk07cTaiubOUnDSIkbtg-83" edge="1">
          <mxGeometry width="160" relative="1" as="geometry">
            <mxPoint x="1830" y="190" as="sourcePoint" />
            <mxPoint x="1970" y="170" as="targetPoint" />
          </mxGeometry>
        </mxCell>
        <mxCell id="Dk07cTaiubOUnDSIkbtg-83" value="接单管理" style="ellipse;whiteSpace=wrap;html=1;fillColor=light-dark(#F3F3F3,#E3E3E3);" parent="1" vertex="1">
          <mxGeometry x="1300" y="-150" width="140" height="60" as="geometry" />
        </mxCell>
        <mxCell id="Dk07cTaiubOUnDSIkbtg-84" value="&amp;lt;&amp;lt;include&amp;gt;&amp;gt;" style="endArrow=open;endSize=12;dashed=1;html=1;rounded=0;entryX=0.5;entryY=1;entryDx=0;entryDy=0;exitX=0.5;exitY=0;exitDx=0;exitDy=0;fillColor=light-dark(#F3F3F3,#E3E3E3);" parent="1" source="Dk07cTaiubOUnDSIkbtg-5" target="Dk07cTaiubOUnDSIkbtg-85" edge="1">
          <mxGeometry width="160" relative="1" as="geometry">
            <mxPoint x="1840" y="200" as="sourcePoint" />
            <mxPoint x="1980" y="180" as="targetPoint" />
          </mxGeometry>
        </mxCell>
        <mxCell id="Dk07cTaiubOUnDSIkbtg-85" value="供应商管理" style="ellipse;whiteSpace=wrap;html=1;fillColor=light-dark(#F3F3F3,#E3E3E3);" parent="1" vertex="1">
          <mxGeometry x="1220" y="-240" width="140" height="60" as="geometry" />
        </mxCell>
        <mxCell id="Dk07cTaiubOUnDSIkbtg-86" value="&amp;lt;&amp;lt;include&amp;gt;&amp;gt;" style="endArrow=open;endSize=12;dashed=1;html=1;rounded=0;entryX=0.5;entryY=1;entryDx=0;entryDy=0;exitX=0.5;exitY=0;exitDx=0;exitDy=0;fillColor=light-dark(#F3F3F3,#E3E3E3);" parent="1" source="Dk07cTaiubOUnDSIkbtg-5" target="Dk07cTaiubOUnDSIkbtg-87" edge="1">
          <mxGeometry width="160" relative="1" as="geometry">
            <mxPoint x="1850" y="210" as="sourcePoint" />
            <mxPoint x="1990" y="190" as="targetPoint" />
          </mxGeometry>
        </mxCell>
        <mxCell id="Dk07cTaiubOUnDSIkbtg-87" value="硬件管理" style="ellipse;whiteSpace=wrap;html=1;fillColor=light-dark(#F3F3F3,#E3E3E3);" parent="1" vertex="1">
          <mxGeometry x="1130" y="-160" width="140" height="60" as="geometry" />
        </mxCell>
        <mxCell id="Dk07cTaiubOUnDSIkbtg-88" value="&amp;lt;&amp;lt;include&amp;gt;&amp;gt;" style="endArrow=open;endSize=12;dashed=1;html=1;rounded=0;entryX=1;entryY=0.5;entryDx=0;entryDy=0;exitX=0;exitY=0.5;exitDx=0;exitDy=0;fillColor=light-dark(#F3F3F3,#E3E3E3);" parent="1" source="Dk07cTaiubOUnDSIkbtg-32" target="Dk07cTaiubOUnDSIkbtg-89" edge="1">
          <mxGeometry width="160" relative="1" as="geometry">
            <mxPoint x="600" y="130" as="sourcePoint" />
            <mxPoint x="260" y="-30" as="targetPoint" />
          </mxGeometry>
        </mxCell>
        <mxCell id="Dk07cTaiubOUnDSIkbtg-89" value="设计提案管理" style="ellipse;whiteSpace=wrap;html=1;fillColor=light-dark(#F3F3F3,#E3E3E3);" parent="1" vertex="1">
          <mxGeometry x="620" y="680" width="140" height="60" as="geometry" />
        </mxCell>
        <mxCell id="Dk07cTaiubOUnDSIkbtg-90" value="&amp;lt;&amp;lt;include&amp;gt;&amp;gt;" style="endArrow=open;endSize=12;dashed=1;html=1;rounded=0;entryX=1;entryY=0.5;entryDx=0;entryDy=0;exitX=0;exitY=0.5;exitDx=0;exitDy=0;fillColor=light-dark(#F3F3F3,#E3E3E3);" parent="1" source="Dk07cTaiubOUnDSIkbtg-32" target="Dk07cTaiubOUnDSIkbtg-91" edge="1">
          <mxGeometry width="160" relative="1" as="geometry">
            <mxPoint x="610" y="140" as="sourcePoint" />
            <mxPoint x="270" y="-20" as="targetPoint" />
          </mxGeometry>
        </mxCell>
        <mxCell id="Dk07cTaiubOUnDSIkbtg-91" value="众创设计师管理" style="ellipse;whiteSpace=wrap;html=1;fillColor=light-dark(#F3F3F3,#E3E3E3);" parent="1" vertex="1">
          <mxGeometry x="720" y="610" width="140" height="60" as="geometry" />
        </mxCell>
        <mxCell id="Dk07cTaiubOUnDSIkbtg-92" value="&amp;lt;&amp;lt;include&amp;gt;&amp;gt;" style="endArrow=open;endSize=12;dashed=1;html=1;rounded=0;entryX=1;entryY=0.5;entryDx=0;entryDy=0;exitX=0;exitY=0.5;exitDx=0;exitDy=0;fillColor=light-dark(#F3F3F3,#E3E3E3);" parent="1" source="Dk07cTaiubOUnDSIkbtg-34" target="Dk07cTaiubOUnDSIkbtg-93" edge="1">
          <mxGeometry width="160" relative="1" as="geometry">
            <mxPoint x="620" y="150" as="sourcePoint" />
            <mxPoint x="280" y="-10" as="targetPoint" />
          </mxGeometry>
        </mxCell>
        <mxCell id="Dk07cTaiubOUnDSIkbtg-93" value="维修订单管理" style="ellipse;whiteSpace=wrap;html=1;fillColor=light-dark(#F3F3F3,#E3E3E3);" parent="1" vertex="1">
          <mxGeometry x="700" y="520" width="140" height="60" as="geometry" />
        </mxCell>
        <mxCell id="Dk07cTaiubOUnDSIkbtg-94" value="&amp;lt;&amp;lt;include&amp;gt;&amp;gt;" style="endArrow=open;endSize=12;dashed=1;html=1;rounded=0;entryX=1;entryY=0.5;entryDx=0;entryDy=0;exitX=0;exitY=0.5;exitDx=0;exitDy=0;fillColor=light-dark(#F3F3F3,#E3E3E3);" parent="1" source="Dk07cTaiubOUnDSIkbtg-34" target="Dk07cTaiubOUnDSIkbtg-95" edge="1">
          <mxGeometry width="160" relative="1" as="geometry">
            <mxPoint x="630" y="160" as="sourcePoint" />
            <mxPoint x="290" as="targetPoint" />
          </mxGeometry>
        </mxCell>
        <mxCell id="Dk07cTaiubOUnDSIkbtg-95" value="故障库管理" style="ellipse;whiteSpace=wrap;html=1;fillColor=light-dark(#F3F3F3,#E3E3E3);" parent="1" vertex="1">
          <mxGeometry x="700" y="430" width="140" height="60" as="geometry" />
        </mxCell>
        <mxCell id="Dk07cTaiubOUnDSIkbtg-96" value="&amp;lt;&amp;lt;include&amp;gt;&amp;gt;" style="endArrow=open;endSize=12;dashed=1;html=1;rounded=0;entryX=0.5;entryY=1;entryDx=0;entryDy=0;exitX=0;exitY=0.5;exitDx=0;exitDy=0;fillColor=light-dark(#F3F3F3,#E3E3E3);" parent="1" source="Dk07cTaiubOUnDSIkbtg-34" target="Dk07cTaiubOUnDSIkbtg-97" edge="1">
          <mxGeometry width="160" relative="1" as="geometry">
            <mxPoint x="640" y="170" as="sourcePoint" />
            <mxPoint x="300" y="10" as="targetPoint" />
          </mxGeometry>
        </mxCell>
        <mxCell id="Dk07cTaiubOUnDSIkbtg-97" value="维修商管理" style="ellipse;whiteSpace=wrap;html=1;fillColor=light-dark(#F3F3F3,#E3E3E3);" parent="1" vertex="1">
          <mxGeometry x="880" y="370" width="140" height="60" as="geometry" />
        </mxCell>
        <mxCell id="Dk07cTaiubOUnDSIkbtg-98" value="&amp;lt;&amp;lt;include&amp;gt;&amp;gt;" style="endArrow=open;endSize=12;dashed=1;html=1;rounded=0;entryX=1;entryY=0.5;entryDx=0;entryDy=0;exitX=0;exitY=0.5;exitDx=0;exitDy=0;fillColor=light-dark(#F3F3F3,#E3E3E3);" parent="1" source="Dk07cTaiubOUnDSIkbtg-36" target="Dk07cTaiubOUnDSIkbtg-99" edge="1">
          <mxGeometry width="160" relative="1" as="geometry">
            <mxPoint x="740" y="520" as="sourcePoint" />
            <mxPoint x="310" y="20" as="targetPoint" />
          </mxGeometry>
        </mxCell>
        <mxCell id="Dk07cTaiubOUnDSIkbtg-99" value="服务商管理" style="ellipse;whiteSpace=wrap;html=1;fillColor=light-dark(#F3F3F3,#E3E3E3);" parent="1" vertex="1">
          <mxGeometry x="730" y="340" width="140" height="60" as="geometry" />
        </mxCell>
        <mxCell id="Dk07cTaiubOUnDSIkbtg-100" value="&amp;lt;&amp;lt;include&amp;gt;&amp;gt;" style="endArrow=open;endSize=12;dashed=1;html=1;rounded=0;entryX=1;entryY=0.5;entryDx=0;entryDy=0;exitX=0;exitY=0.5;exitDx=0;exitDy=0;fillColor=light-dark(#F3F3F3,#E3E3E3);" parent="1" source="Dk07cTaiubOUnDSIkbtg-36" target="Dk07cTaiubOUnDSIkbtg-101" edge="1">
          <mxGeometry width="160" relative="1" as="geometry">
            <mxPoint x="660" y="190" as="sourcePoint" />
            <mxPoint x="320" y="30" as="targetPoint" />
          </mxGeometry>
        </mxCell>
        <mxCell id="Dk07cTaiubOUnDSIkbtg-101" value="物流订单管理" style="ellipse;whiteSpace=wrap;html=1;fillColor=light-dark(#F3F3F3,#E3E3E3);" parent="1" vertex="1">
          <mxGeometry x="650" y="280" width="140" height="60" as="geometry" />
        </mxCell>
        <mxCell id="Dk07cTaiubOUnDSIkbtg-102" value="&amp;lt;&amp;lt;include&amp;gt;&amp;gt;" style="endArrow=open;endSize=12;dashed=1;html=1;rounded=0;entryX=1;entryY=0.5;entryDx=0;entryDy=0;exitX=0;exitY=0.5;exitDx=0;exitDy=0;fillColor=light-dark(#F3F3F3,#E3E3E3);" parent="1" source="Dk07cTaiubOUnDSIkbtg-36" target="Dk07cTaiubOUnDSIkbtg-103" edge="1">
          <mxGeometry width="160" relative="1" as="geometry">
            <mxPoint x="670" y="200" as="sourcePoint" />
            <mxPoint x="330" y="40" as="targetPoint" />
          </mxGeometry>
        </mxCell>
        <mxCell id="Dk07cTaiubOUnDSIkbtg-103" value="货物类别管理" style="ellipse;whiteSpace=wrap;html=1;fillColor=light-dark(#F3F3F3,#E3E3E3);" parent="1" vertex="1">
          <mxGeometry x="730" y="130" width="140" height="60" as="geometry" />
        </mxCell>
        <mxCell id="Dk07cTaiubOUnDSIkbtg-104" value="&amp;lt;&amp;lt;include&amp;gt;&amp;gt;" style="endArrow=open;endSize=12;dashed=1;html=1;rounded=0;entryX=1;entryY=0.5;entryDx=0;entryDy=0;exitX=0;exitY=0.5;exitDx=0;exitDy=0;fillColor=light-dark(#F3F3F3,#E3E3E3);" parent="1" source="Dk07cTaiubOUnDSIkbtg-36" target="Dk07cTaiubOUnDSIkbtg-105" edge="1">
          <mxGeometry width="160" relative="1" as="geometry">
            <mxPoint x="680" y="210" as="sourcePoint" />
            <mxPoint x="340" y="50" as="targetPoint" />
          </mxGeometry>
        </mxCell>
        <mxCell id="Dk07cTaiubOUnDSIkbtg-105" value="货物管理" style="ellipse;whiteSpace=wrap;html=1;fillColor=light-dark(#F3F3F3,#E3E3E3);" parent="1" vertex="1">
          <mxGeometry x="660" y="210" width="140" height="60" as="geometry" />
        </mxCell>
        <mxCell id="Dk07cTaiubOUnDSIkbtg-106" value="&amp;lt;&amp;lt;include&amp;gt;&amp;gt;" style="endArrow=open;endSize=12;dashed=1;html=1;rounded=0;entryX=1;entryY=0.5;entryDx=0;entryDy=0;exitX=0;exitY=0.5;exitDx=0;exitDy=0;fillColor=light-dark(#F3F3F3,#E3E3E3);" parent="1" source="Dk07cTaiubOUnDSIkbtg-36" target="Dk07cTaiubOUnDSIkbtg-107" edge="1">
          <mxGeometry width="160" relative="1" as="geometry">
            <mxPoint x="690" y="220" as="sourcePoint" />
            <mxPoint x="350" y="60" as="targetPoint" />
          </mxGeometry>
        </mxCell>
        <mxCell id="Dk07cTaiubOUnDSIkbtg-107" value="物流商接单管理" style="ellipse;whiteSpace=wrap;html=1;fillColor=light-dark(#F3F3F3,#E3E3E3);" parent="1" vertex="1">
          <mxGeometry x="780" y="50" width="140" height="60" as="geometry" />
        </mxCell>
        <mxCell id="Dk07cTaiubOUnDSIkbtg-108" value="&amp;lt;&amp;lt;include&amp;gt;&amp;gt;" style="endArrow=open;endSize=12;dashed=1;html=1;rounded=0;entryX=0.5;entryY=1;entryDx=0;entryDy=0;exitX=0.5;exitY=0;exitDx=0;exitDy=0;fillColor=light-dark(#F3F3F3,#E3E3E3);" parent="1" source="Dk07cTaiubOUnDSIkbtg-38" target="Dk07cTaiubOUnDSIkbtg-109" edge="1">
          <mxGeometry width="160" relative="1" as="geometry">
            <mxPoint x="700" y="230" as="sourcePoint" />
            <mxPoint x="360" y="70" as="targetPoint" />
          </mxGeometry>
        </mxCell>
        <mxCell id="Dk07cTaiubOUnDSIkbtg-109" value="仓储订单管理" style="ellipse;whiteSpace=wrap;html=1;fillColor=light-dark(#F3F3F3,#E3E3E3);" parent="1" vertex="1">
          <mxGeometry x="890" y="-140" width="140" height="60" as="geometry" />
        </mxCell>
        <mxCell id="Dk07cTaiubOUnDSIkbtg-110" value="&amp;lt;&amp;lt;include&amp;gt;&amp;gt;" style="endArrow=open;endSize=12;dashed=1;html=1;rounded=0;entryX=0.5;entryY=1;entryDx=0;entryDy=0;exitX=0.5;exitY=0;exitDx=0;exitDy=0;fillColor=light-dark(#F3F3F3,#E3E3E3);" parent="1" source="Dk07cTaiubOUnDSIkbtg-38" target="Dk07cTaiubOUnDSIkbtg-111" edge="1">
          <mxGeometry width="160" relative="1" as="geometry">
            <mxPoint x="710" y="240" as="sourcePoint" />
            <mxPoint x="370" y="80" as="targetPoint" />
          </mxGeometry>
        </mxCell>
        <mxCell id="Dk07cTaiubOUnDSIkbtg-111" value="仓储空间管理" style="ellipse;whiteSpace=wrap;html=1;fillColor=light-dark(#F3F3F3,#E3E3E3);" parent="1" vertex="1">
          <mxGeometry x="990" y="-210" width="140" height="60" as="geometry" />
        </mxCell>
      </root>
    </mxGraphModel>
  </diagram>
</mxfile>
